<svg width="1280" height="720" viewBox="0 0 1280 720" fill="none" xmlns="http://www.w3.org/2000/svg">
<rect x="324.216" y="-2" width="652.637" height="722" fill="#276375"/>
<path d="M72 -24C72 -35.0457 80.9543 -44 92 -44H337C348.046 -44 357 -35.0457 357 -24V47C357 58.0457 348.046 67 337 67H92C80.9543 67 72 58.0457 72 47V-24Z" fill="#276375"/>
<path d="M263 45H334V118H263V45Z" fill="#276375"/>
<ellipse cx="258.5" cy="117.5" rx="65.5" ry="50.5" fill="white"/>
<path d="M1040.98 686H966.902V613H1040.98V686Z" fill="#276375"/>
<ellipse cx="1045.4" cy="613.5" rx="68.5509" ry="50.5" transform="rotate(-180 1045.4 613.5)" fill="white"/>
<path d="M-135 688C-135 676.954 -126.046 668 -115 668H114C125.046 668 134 676.954 134 688V759C134 770.046 125.046 779 114 779H-115C-126.046 779 -135 770.046 -135 759V688Z" fill="#276375"/>
<path d="M938 684C938 672.954 946.954 664 958 664H1220C1231.05 664 1240 672.954 1240 684V775C1240 786.046 1231.05 795 1220 795H958C946.954 795 938 786.046 938 775V684Z" fill="#276375"/>
<path d="M1190 -24C1190 -35.0457 1198.95 -44 1210 -44H1417C1428.05 -44 1437 -35.0457 1437 -24V323C1437 334.046 1428.05 343 1417 343H1210C1198.95 343 1190 334.046 1190 323V-24Z" fill="#276375"/>
</svg>
