<svg width="1280" height="720" viewBox="0 0 1280 720" fill="none" xmlns="http://www.w3.org/2000/svg">
<rect x="636" width="644" height="720" fill="#276375"/>
<path d="M361 -22C361 -33.0457 369.954 -42 381 -42H652C663.046 -42 672 -33.0457 672 -22V49C672 60.0457 663.046 69 652 69H381C369.954 69 361 60.0457 361 49V-22Z" fill="#276375"/>
<path d="M569 47H647V120H569V47Z" fill="#276375"/>
<ellipse cx="564.5" cy="119.5" rx="71.5" ry="50.5" fill="white"/>
<path d="M-48 678C-48 666.954 -39.0457 658 -28 658H201C212.046 658 221 666.954 221 678V749C221 760.046 212.046 769 201 769H-28C-39.0457 769 -48 760.046 -48 749V678Z" fill="#276375"/>
<path d="M-32 -27C-32 -38.0457 -23.0457 -47 -12 -47H13C24.0457 -47 33 -38.0457 33 -27V232C33 243.046 24.0457 252 13 252H-12C-23.0457 252 -32 243.046 -32 232V-27Z" fill="#276375"/>
</svg>
