<svg width="68" height="68" viewBox="0 0 68 68" fill="none" xmlns="http://www.w3.org/2000/svg">
<g filter="url(#filter0_d_451_62)">
<path fill-rule="evenodd" clip-rule="evenodd" d="M34.7134 0.00941785C37.5447 0.054518 38.2638 0.114652 39.8817 0.46042C40.9153 0.670887 42.668 1.15196 43.7765 1.52779C44.8851 1.91866 46.4131 2.51999 47.1471 2.89583C47.8812 3.27166 49.0646 3.9181 49.7687 4.33904C50.4728 4.775 51.6862 5.63191 52.4651 6.24828C53.2441 6.87968 54.3227 7.79672 54.847 8.29282C55.3713 8.77389 56.345 9.82623 56.9892 10.608C57.6483 11.3897 58.6071 12.6826 59.1314 13.4643C59.6557 14.246 60.5246 15.8095 61.0489 16.922C61.5882 18.0345 62.2173 19.5979 62.472 20.3797C62.7267 21.1614 63.0263 22.1837 63.1611 22.6347C63.2809 23.0857 63.5206 24.3335 63.7004 25.4159C63.9101 26.814 64 28.1068 64 29.9259C64 31.3841 63.8951 33.1581 63.7753 34.0601C63.6405 34.932 63.4158 36.1798 63.266 36.8412C63.1012 37.5027 62.7566 38.6903 62.502 39.4721C62.2323 40.2538 61.738 41.5166 61.4084 42.2533C61.0788 42.9899 60.4646 44.2076 60.0452 44.9442C59.6257 45.6658 58.7868 46.9286 58.2026 47.7254C57.6034 48.5222 56.5847 49.7399 55.9406 50.4465C55.2964 51.153 54.128 52.2655 53.349 52.9119C52.57 53.5734 51.2967 54.5355 50.5177 55.0467C49.7387 55.5578 48.3156 56.3696 47.3718 56.8357C46.4281 57.3167 44.6604 58.0383 43.432 58.4292C42.2186 58.8351 40.4659 59.3011 39.5371 59.4515C38.6233 59.6168 37.0204 59.8273 35.9868 59.9175C34.4887 60.0378 33.6199 60.0378 31.6425 59.8423C30.2793 59.7221 28.5266 59.4815 27.7476 59.3162C26.9686 59.1508 25.5904 58.775 24.6766 58.4743C23.7628 58.1736 22.2198 57.5422 21.2311 57.0762C20.2424 56.5951 18.9541 55.9186 18.3849 55.5578C17.8156 55.212 16.6921 54.4303 15.9131 53.844C15.1341 53.2577 13.741 52.04 12.8421 51.123C11.9283 50.221 10.7149 48.8229 10.1307 48.0411C9.54647 47.2594 8.78247 46.1469 8.42295 45.5606C8.06342 44.9743 7.44922 43.8618 7.05973 43.0801C6.67025 42.2984 6.11597 41.0055 5.83135 40.2238C5.53174 39.442 5.15723 38.2243 4.97747 37.5177C4.7977 36.8112 4.55802 35.6235 4.43817 34.8869C4.31833 34.1503 4.15355 32.692 4.07865 31.6547C3.97378 30.4069 3.97378 29.1141 4.07865 27.8212C4.16853 26.7388 4.40821 25.0551 4.60296 24.0629C4.7977 23.0706 5.23213 21.4771 5.54672 20.53C5.86131 19.5829 6.38562 18.2299 6.70021 17.5233C7.01479 16.8168 7.53911 15.7644 7.86867 15.1931C8.19824 14.6219 8.85737 13.5695 9.33675 12.863C9.81612 12.1564 10.7299 10.9838 11.3891 10.2321C12.0332 9.49549 13.1418 8.35295 13.8608 7.72155C14.5799 7.07511 15.6584 6.18814 16.2427 5.73714C16.8419 5.30117 17.8156 4.6397 18.3849 4.29394C18.9541 3.93313 20.1675 3.2867 21.0813 2.85073C21.9951 2.41476 23.5381 1.78336 24.5268 1.45262C25.5155 1.12189 26.9986 0.715987 27.8225 0.55062C28.6464 0.385253 29.7999 0.174785 30.3691 0.0996182C30.9384 0.0244513 32.9008 -0.0206489 34.7134 0.00941785ZM28.3468 2.03893C27.4779 2.21933 25.9949 2.62523 25.0511 2.94093C24.1074 3.25663 22.7591 3.7828 22.0551 4.11353C21.351 4.42924 20.1376 5.09071 19.3586 5.57177C18.5796 6.03781 17.4261 6.81955 16.8119 7.28558C16.1977 7.75162 15.1341 8.66865 14.445 9.33012C13.741 9.99159 12.7523 11.0439 12.2429 11.6603C11.7336 12.2767 10.8947 13.4342 10.3704 14.216C9.84608 14.9977 9.03714 16.4259 8.55777 17.373C8.09338 18.3201 7.43424 19.9136 7.10468 20.9058C6.77511 21.898 6.37064 23.4465 6.19087 24.3635C6.02609 25.2806 5.81637 26.9342 5.74146 28.0467C5.66656 29.2343 5.66656 30.8579 5.74146 31.9554C5.81637 32.9927 6.01111 34.5411 6.17589 35.4131C6.34068 36.285 6.71519 37.7282 6.99981 38.6452C7.29942 39.5623 8.0035 41.246 8.57275 42.4036C9.12702 43.5612 9.9809 45.0795 10.4453 45.7861C10.9247 46.4927 11.7336 47.5751 12.2429 48.1915C12.7523 48.8078 13.741 49.8602 14.445 50.5216C15.1341 51.1831 16.2726 52.1603 16.9617 52.6864C17.6658 53.2126 18.8493 54.0094 19.5833 54.4453C20.3173 54.8963 21.6056 55.5428 22.4296 55.9186C23.2535 56.2794 24.4369 56.7455 25.0511 56.9559C25.6653 57.1514 26.9536 57.4971 27.8974 57.7076C28.8411 57.9181 30.3542 58.1736 31.268 58.2789C32.2567 58.3841 33.7996 58.4142 35.1628 58.3691C36.3912 58.3089 37.9792 58.1736 38.6832 58.0383C39.3873 57.9181 40.7206 57.6024 41.6344 57.3618C42.5631 57.1063 44.1511 56.55 45.1547 56.114C46.1734 55.6781 47.6415 54.9414 48.4204 54.4904C49.1994 54.0244 50.4128 53.2126 51.1169 52.6864C51.806 52.1603 52.9745 51.153 53.7085 50.4465C54.4425 49.7399 55.5361 48.5523 56.1353 47.8156C56.7345 47.079 57.5285 45.9966 57.903 45.4103C58.2775 44.824 58.8917 43.7416 59.2662 43.0049C59.6557 42.2683 60.225 40.9754 60.5545 40.1486C60.8691 39.3217 61.3035 37.9687 61.5133 37.1419C61.723 36.3151 62.0076 34.932 62.1424 34.0601C62.2922 33.0528 62.3671 31.5044 62.3671 29.7755C62.3671 28.0467 62.2922 26.5734 62.1424 25.7165C62.0076 24.9799 61.7979 23.8524 61.6631 23.236C61.5282 22.6196 61.1837 21.432 60.8991 20.6052C60.6144 19.7783 60.0901 18.4855 59.7456 17.7488C59.3861 17.0122 58.7119 15.7494 58.2326 14.9676C57.7382 14.1859 56.8244 12.893 56.1952 12.1113C55.5661 11.3296 54.4575 10.1119 53.7235 9.40529C52.9894 8.69872 51.806 7.69148 51.1169 7.18035C50.4128 6.65418 49.2294 5.85741 48.4953 5.42144C47.7613 4.97044 46.458 4.30897 45.6041 3.93313C44.7652 3.5573 43.3122 3.0161 42.3834 2.73046C41.4696 2.44483 40.1363 2.11409 39.4322 1.97879C38.7282 1.84349 37.2751 1.67812 36.2115 1.58792C35.1479 1.51276 34.0243 1.45262 33.7397 1.45262C33.4551 1.46766 32.4814 1.54282 31.5676 1.60296C30.6538 1.67812 29.2157 1.87356 28.3468 2.03893Z" fill="#003B50"/>
<path d="M32.811 52.7467C32.8709 52.6565 33.3203 52.5513 33.8147 52.5062C34.309 52.4761 34.8483 52.4611 35.0131 52.4611C35.2827 52.4762 35.3127 52.5814 35.3127 54.5808L34.2641 54.5658C33.6948 54.5658 33.0956 54.5057 32.9608 54.4606C32.7511 54.3854 32.6911 54.19 32.6911 53.6488C32.6911 53.2429 32.7511 52.852 32.811 52.7467Z" fill="#003B50"/>
<path d="M35.9868 46.0118V44.5536C35.9868 43.4711 36.0318 43.0803 36.1666 43.0803C36.2714 43.0803 36.7958 43.1855 37.335 43.3208C37.8743 43.4411 38.7132 43.7718 39.1926 44.0274C39.687 44.298 40.3611 44.779 40.7056 45.1098C41.0352 45.4405 41.4397 45.9817 41.6044 46.3125C41.8142 46.7484 41.904 47.2295 41.904 48.0413C41.904 48.8982 41.8291 49.3191 41.5895 49.7701C41.4247 50.1009 40.9902 50.5819 40.6157 50.8225C40.2562 51.078 39.5222 51.3937 38.9829 51.529C38.4436 51.6643 36.7958 51.8898 35.3127 52.0101C33.8296 52.1454 32.1069 52.3258 31.4927 52.416C30.8785 52.5062 29.9797 52.7467 29.5153 52.9422C29.0359 53.1376 28.4817 53.303 28.2719 53.303C27.9873 53.303 27.8974 53.2278 27.8974 52.9722C27.8974 52.7768 28.0472 52.3859 28.242 52.1003C28.4217 51.8147 28.8562 51.4238 29.1708 51.2434C29.5003 51.063 30.1744 50.8074 30.6688 50.6872C31.1631 50.5669 32.5413 50.3113 33.7398 50.146C34.9382 49.9656 36.2115 49.7551 36.586 49.6649C36.9605 49.5747 37.5148 49.3793 37.8144 49.2289C38.129 49.0636 38.4885 48.793 38.6084 48.6126C38.7282 48.4171 38.8331 48.0864 38.8331 47.8609C38.8331 47.6204 38.6833 47.2746 38.5035 47.0942C38.3088 46.8988 37.6646 46.568 35.9868 46.0118Z" fill="#003B50"/>
<path d="M32.4215 37.999C32.4515 37.984 33.0806 37.8336 33.8147 37.6833C34.5487 37.5179 35.2827 37.3826 35.4325 37.3826C35.7022 37.3676 35.7022 37.6081 35.6123 43.3509C35.5524 46.6282 35.4775 49.3492 35.4625 49.3943C35.4325 49.4394 34.8183 49.5597 34.0993 49.6649C33.3653 49.7701 32.7511 49.8453 32.7361 49.8152C32.7211 49.7852 32.6312 47.1393 32.5413 43.9071C32.4515 40.69 32.4065 38.0291 32.4215 37.999Z" fill="#003B50"/>
<path d="M36.2864 28.0018C36.2415 27.0547 36.2714 26.6037 36.4212 26.3782C36.5411 26.2128 36.7059 26.0925 36.7958 26.1376C36.8856 26.1827 37.4699 26.3631 38.0841 26.5435C38.6983 26.7239 39.672 27.1148 40.2412 27.4155C40.8704 27.7612 41.5295 28.2573 41.934 28.7234C42.3535 29.1894 42.683 29.7607 42.8178 30.2267C42.9377 30.6477 43.0276 31.234 43.0276 31.5497C43.0276 31.8503 42.9377 32.4216 42.8478 32.8125C42.728 33.2484 42.4134 33.7896 42.0389 34.2106C41.7093 34.5864 40.9603 35.1276 40.391 35.4433C39.8218 35.744 38.9829 36.0897 38.5335 36.225C38.0841 36.3453 36.3913 36.7362 34.7884 37.0819C33.1855 37.4127 31.4927 37.8336 31.0433 38.014C30.5939 38.1944 29.9947 38.5402 29.725 38.7807C29.4554 39.0363 29.2007 39.4121 29.1558 39.6226C29.1108 39.8331 29.1857 40.254 29.3056 40.5697C29.4554 40.9155 29.725 41.2161 30.0246 41.3815C30.2943 41.5168 30.8635 41.7423 31.268 41.8776C31.9871 42.1181 32.017 42.1632 32.1219 42.7946C32.1668 43.1554 32.2267 43.8169 32.2267 44.2529C32.2417 44.9745 32.2118 45.0346 31.9122 45.0346C31.7174 45.0346 31.0283 44.8843 30.3692 44.7039C29.6951 44.5084 28.8112 44.1326 28.3468 43.8319C27.8974 43.5313 27.2683 42.9901 26.9687 42.6142C26.669 42.2534 26.2796 41.622 26.0848 41.2011C25.8451 40.6599 25.7552 40.1488 25.7403 39.3971C25.7403 38.5101 25.8002 38.2245 26.1747 37.5329C26.4294 37.097 26.8788 36.4956 27.1934 36.225C27.493 35.9394 28.0622 35.5485 28.4667 35.3531C28.8562 35.1577 29.4104 34.9322 29.6951 34.8269C29.9797 34.7367 31.8373 34.3308 33.8147 33.9249C35.852 33.519 37.6796 33.053 38.0541 32.8726C38.3986 32.7072 38.7881 32.4066 38.908 32.2262C39.0278 32.0307 39.1327 31.6549 39.1327 31.3993C39.1327 31.0987 38.9979 30.7529 38.8031 30.5274C38.6084 30.3169 37.9942 29.9561 36.3613 29.2947L36.2864 28.0018Z" fill="#003B50"/>
<path d="M32.1818 28.1972C32.1369 25.3409 32.0919 21.9734 32.1069 20.7106L32.1219 18.3954L32.7511 18.5007C33.0806 18.5608 33.9345 18.8013 34.6386 19.0419C35.3427 19.2824 35.9718 19.553 36.0617 19.6432C36.1616 19.7434 36.1466 22.0085 36.0168 26.4383C35.9119 30.0914 35.807 33.0981 35.7921 33.1131C35.7771 33.1282 35.0281 33.2785 34.1143 33.4589C32.826 33.6844 32.4515 33.7145 32.3766 33.5641C32.3166 33.4739 32.2267 31.0536 32.1818 28.1972Z" fill="#003B50"/>
<path d="M33.6649 15.4489C35.1329 15.5241 36.0917 15.509 36.8557 15.3737C37.6047 15.2384 38.2339 15.2234 38.8031 15.3136C39.2825 15.3888 40.0015 15.6143 40.406 15.8097C40.8255 16.0051 41.4546 16.4261 41.8291 16.7418C42.2037 17.0725 42.7429 17.7039 43.5968 18.9667L45.4394 19.1471C46.4581 19.2523 47.3719 19.4027 47.4468 19.4929C47.5466 19.5931 47.5217 19.6933 47.3719 19.7935C47.252 19.8687 46.9075 19.9288 46.0985 19.9288L47.0423 20.5302C47.5516 20.8759 47.9711 21.1916 47.9861 21.2518C47.9861 21.3119 47.8962 21.4472 47.7913 21.5374C47.6415 21.6727 47.1172 21.4923 43.5519 19.9589L43.0276 20.2295C42.7429 20.3798 42.2636 20.5452 41.9789 20.6053C41.6943 20.6504 40.9902 20.6204 40.406 20.5302C39.8368 20.4249 38.1739 19.9288 36.7358 19.4027C35.2977 18.8915 33.6798 18.3503 33.1405 18.215C32.5413 18.0497 31.8223 17.9745 31.268 18.0196C30.7737 18.0497 30.0995 18.2 29.785 18.3654C29.4554 18.5307 28.991 18.9366 28.7663 19.2674C28.4217 19.7334 28.3468 20.019 28.3468 20.6504C28.3468 21.1165 28.4667 21.7028 28.6464 22.0786C28.8112 22.4244 29.1558 22.9656 29.4254 23.2813C29.6951 23.582 30.3242 24.063 31.7174 24.8297L31.7624 26.4533C31.7923 27.9717 31.7773 28.0619 31.4927 28.0619C31.3279 28.0619 30.6838 27.8815 30.0696 27.6861C29.4554 27.4756 28.5865 27.0847 28.1671 26.7991C27.7326 26.5285 26.9537 25.852 26.4443 25.2958C25.8751 24.6944 25.3058 23.8826 25.0212 23.2813C24.5868 22.3793 24.5418 22.1237 24.5269 20.921C24.5269 19.7785 24.5868 19.4327 24.9163 18.7412C25.1261 18.2752 25.5905 17.5836 25.965 17.1777C26.3395 16.7718 27.0136 16.2607 27.5229 16.0051C28.2719 15.6443 28.6914 15.5391 29.9947 15.4489C30.8635 15.3888 32.5114 15.3888 33.6649 15.4489Z" fill="#003B50"/>
<path d="M32.3166 9.1048C32.5713 8.95446 33.0357 8.75903 33.3653 8.68386C33.6948 8.6087 34.2042 8.57863 34.4888 8.62373C34.7734 8.66883 35.2827 8.84923 35.6123 9.0146C35.9269 9.195 36.3613 9.57083 36.5561 9.8715C36.7358 10.1571 36.9755 10.6683 37.0504 10.999C37.1403 11.3297 37.1703 11.8258 37.1103 12.1265C37.0654 12.4121 36.8557 12.9383 36.6459 13.2841C36.4362 13.675 36.2864 14.1711 36.2864 15.1332H35.5823C35.1779 15.1332 34.2042 15.0731 31.9421 14.9077V14.4567C31.9421 14.2011 31.7624 13.7351 31.5377 13.4043C31.238 12.9533 31.1182 12.5625 31.0583 11.901C31.0133 11.1193 31.0583 10.8787 31.4328 10.1872C31.6725 9.75123 32.0769 9.25513 32.3166 9.1048Z" fill="#003B50"/>
</g>
<defs>
<filter id="filter0_d_451_62" x="0" y="0" width="68" height="68" filterUnits="userSpaceOnUse" color-interpolation-filters="sRGB">
<feFlood flood-opacity="0" result="BackgroundImageFix"/>
<feColorMatrix in="SourceAlpha" type="matrix" values="0 0 0 0 0 0 0 0 0 0 0 0 0 0 0 0 0 0 127 0" result="hardAlpha"/>
<feOffset dy="4"/>
<feGaussianBlur stdDeviation="2"/>
<feComposite in2="hardAlpha" operator="out"/>
<feColorMatrix type="matrix" values="0 0 0 0 0 0 0 0 0 0 0 0 0 0 0 0 0 0 0.25 0"/>
<feBlend mode="normal" in2="BackgroundImageFix" result="effect1_dropShadow_451_62"/>
<feBlend mode="normal" in="SourceGraphic" in2="effect1_dropShadow_451_62" result="shape"/>
</filter>
</defs>
</svg>
