<svg width="45" height="45" viewBox="0 0 45 45" fill="none" xmlns="http://www.w3.org/2000/svg">
<path fill-rule="evenodd" clip-rule="evenodd" d="M23.0351 0.00706339C25.1585 0.0408885 25.6978 0.0859887 26.9112 0.345315C27.6865 0.503165 29.001 0.863967 29.8324 1.14584C30.6638 1.43899 31.8098 1.89 32.3603 2.17187C32.9109 2.45375 33.7985 2.93858 34.3265 3.25428C34.8546 3.58125 35.7646 4.22393 36.3489 4.68621C36.9331 5.15976 37.742 5.84754 38.1353 6.21961C38.5285 6.58042 39.2588 7.36967 39.7419 7.95597C40.2363 8.54227 40.9553 9.51193 41.3485 10.0982C41.7418 10.6845 42.3934 11.8571 42.7867 12.6915C43.1911 13.5258 43.663 14.6985 43.854 15.2848C44.045 15.8711 44.2697 16.6378 44.3708 16.976C44.4607 17.3143 44.6405 18.2501 44.7753 19.0619C44.9326 20.1105 45 21.0801 45 22.4444C45 23.5381 44.9214 24.8685 44.8315 25.545C44.7304 26.199 44.5618 27.1348 44.4495 27.6309C44.3259 28.127 44.0675 29.0178 43.8765 29.6041C43.6742 30.1904 43.3035 31.1375 43.0563 31.6899C42.8091 32.2424 42.3485 33.1557 42.0339 33.7082C41.7193 34.2494 41.0901 35.1965 40.652 35.7941C40.2025 36.3916 39.4386 37.3049 38.9554 37.8348C38.4723 38.3648 37.596 39.1991 37.0117 39.684C36.4275 40.1801 35.4725 40.9017 34.8883 41.285C34.304 41.6684 33.2367 42.2772 32.5289 42.6267C31.821 42.9875 30.4953 43.5287 29.574 43.8219C28.6639 44.1263 27.3494 44.4758 26.6528 44.5886C25.9675 44.7126 24.7653 44.8705 23.9901 44.9381C22.8666 45.0283 22.2149 45.0283 20.7319 44.8818C19.7094 44.7915 18.3949 44.6111 17.8107 44.4871C17.2265 44.3631 16.1928 44.0812 15.5075 43.8557C14.8221 43.6302 13.6649 43.1567 12.9234 42.8071C12.1818 42.4463 11.2156 41.939 10.7887 41.6684C10.3617 41.409 9.51907 40.8227 8.93484 40.383C8.3506 39.9433 7.30572 39.03 6.63161 38.3422C5.94626 37.6657 5.0362 36.6171 4.59803 36.0308C4.15985 35.4445 3.58685 34.6102 3.31721 34.1705C3.04756 33.7307 2.58692 32.8964 2.2948 32.3101C2.00268 31.7238 1.58698 30.7541 1.37351 30.1678C1.1488 29.5815 0.867923 28.6682 0.7331 28.1383C0.598277 27.6084 0.418513 26.7177 0.328631 26.1652C0.238749 25.6127 0.115161 24.519 0.0589851 23.741C-0.0196617 22.8052 -0.0196617 21.8356 0.0589851 20.8659C0.126397 20.0541 0.306161 18.7913 0.452219 18.0471C0.598277 17.303 0.9241 16.1078 1.16004 15.3975C1.39598 14.6872 1.78921 13.6724 2.02515 13.1425C2.26109 12.6126 2.65433 11.8233 2.9015 11.3949C3.14868 10.9664 3.64303 10.1772 4.00256 9.64723C4.36209 9.1173 5.04744 8.23785 5.54179 7.6741C6.02491 7.12162 6.85631 6.26471 7.39561 5.79116C7.9349 5.30634 8.74384 4.64111 9.18201 4.30286C9.63142 3.97588 10.3617 3.47978 10.7887 3.22045C11.2156 2.94985 12.1256 2.46502 12.811 2.13805C13.4963 1.81107 14.6536 1.33752 15.3951 1.08947C16.1366 0.841417 17.2489 0.536991 17.8669 0.412965C18.4848 0.28894 19.3499 0.131089 19.7769 0.0747137C20.2038 0.0183384 21.6756 -0.0154867 23.0351 0.00706339ZM18.2601 1.52919C17.6085 1.6645 16.4962 1.96892 15.7883 2.2057C15.0805 2.44247 14.0693 2.8371 13.5413 3.08515C13.0132 3.32193 12.1032 3.81803 11.5189 4.17883C10.9347 4.52836 10.0696 5.11466 9.60895 5.46419C9.14831 5.81371 8.3506 6.50149 7.83378 6.99759C7.30572 7.49369 6.5642 8.28295 6.1822 8.74522C5.8002 9.2075 5.17103 10.0757 4.77779 10.662C4.38456 11.2483 3.77785 12.3194 3.41833 13.0297C3.07003 13.7401 2.57568 14.9352 2.32851 15.6794C2.08133 16.4235 1.77798 17.5849 1.64316 18.2726C1.51957 18.9604 1.36227 20.2007 1.3061 21.035C1.24992 21.9258 1.24992 23.1435 1.3061 23.9665C1.36227 24.7445 1.50833 25.9058 1.63192 26.5598C1.75551 27.2138 2.03639 28.2962 2.24986 28.9839C2.47456 29.6717 3.00262 30.9345 3.42956 31.8027C3.84527 32.6709 4.48568 33.8097 4.83397 34.3396C5.1935 34.8695 5.8002 35.6813 6.1822 36.1436C6.5642 36.6059 7.30572 37.3951 7.83378 37.8912C8.3506 38.3873 9.20448 39.1202 9.7213 39.5148C10.2494 39.9095 11.1369 40.507 11.6875 40.834C12.238 41.1723 13.2042 41.6571 13.8222 41.939C14.4401 42.2096 15.3277 42.5591 15.7883 42.7169C16.249 42.8635 17.2152 43.1228 17.923 43.2807C18.6309 43.4385 19.7656 43.6302 20.451 43.7091C21.1925 43.7881 22.3497 43.8106 23.3721 43.7768C24.2934 43.7317 25.4844 43.6302 26.0124 43.5287C26.5405 43.4385 27.5404 43.2018 28.2258 43.0214C28.9224 42.8297 30.1133 42.4125 30.8661 42.0855C31.6301 41.7586 32.7311 41.2061 33.3153 40.8678C33.8996 40.5183 34.8096 39.9095 35.3377 39.5148C35.8545 39.1202 36.7309 38.3648 37.2814 37.8348C37.8319 37.3049 38.6521 36.4142 39.1015 35.8617C39.5509 35.3092 40.1464 34.4974 40.4273 34.0577C40.7081 33.618 41.1688 32.8062 41.4497 32.2537C41.7418 31.7012 42.1687 30.7316 42.4159 30.1114C42.6518 29.4913 42.9777 28.4766 43.1349 27.8564C43.2922 27.2363 43.5057 26.199 43.6068 25.545C43.7192 24.7896 43.7754 23.6283 43.7754 22.3317C43.7754 21.035 43.7192 19.9301 43.6068 19.2874C43.5057 18.7349 43.3484 17.8893 43.2473 17.427C43.1462 16.9647 42.8878 16.074 42.6743 15.4539C42.4608 14.8338 42.0676 13.8641 41.8092 13.3116C41.5395 12.7591 41.034 11.812 40.6744 11.2257C40.3037 10.6394 39.6183 9.66978 39.1464 9.08348C38.6746 8.49717 37.8431 7.58389 37.2926 7.05397C36.7421 6.52404 35.8545 5.76861 35.3377 5.38526C34.8096 4.99063 33.922 4.39306 33.3715 4.06608C32.821 3.72783 31.8435 3.23173 31.2031 2.94985C30.5739 2.66797 29.4841 2.26207 28.7875 2.04785C28.1022 1.83362 27.1022 1.58557 26.5742 1.48409C26.0461 1.38262 24.9563 1.25859 24.1586 1.19094C23.3609 1.13457 22.5183 1.08947 22.3048 1.08947C22.0913 1.10074 21.361 1.15712 20.6757 1.20222C19.9903 1.25859 18.9117 1.40517 18.2601 1.52919Z" fill="white"/>
<path d="M21.6081 39.5598C21.6531 39.4922 21.9901 39.4132 22.3609 39.3794C22.7316 39.3569 23.1361 39.3456 23.2597 39.3456C23.4619 39.3569 23.4844 39.4358 23.4844 40.9354L22.6979 40.9241C22.271 40.9241 21.8216 40.879 21.7205 40.8452C21.5632 40.7888 21.5182 40.6422 21.5182 40.2363C21.5182 39.9319 21.5632 39.6387 21.6081 39.5598Z" fill="white"/>
<path d="M23.99 34.5086V33.4149C23.99 32.6031 24.0237 32.31 24.1248 32.31C24.2035 32.31 24.5967 32.3889 25.0012 32.4904C25.4056 32.5806 26.0348 32.8286 26.3943 33.0203C26.7651 33.2232 27.2707 33.584 27.5291 33.8321C27.7763 34.0801 28.0796 34.486 28.2032 34.7341C28.3605 35.0611 28.4279 35.4219 28.4279 36.0307C28.4279 36.6734 28.3717 36.9891 28.192 37.3274C28.0684 37.5754 27.7426 37.9362 27.4617 38.1166C27.192 38.3083 26.6415 38.5451 26.237 38.6465C25.8326 38.748 24.5967 38.9171 23.4844 39.0073C22.3721 39.1088 21.0801 39.2441 20.6194 39.3118C20.1588 39.3794 19.4847 39.5598 19.1364 39.7064C18.7768 39.853 18.3611 39.977 18.2038 39.977C17.9904 39.977 17.923 39.9206 17.923 39.7289C17.923 39.5824 18.0353 39.2892 18.1814 39.075C18.3162 38.8608 18.642 38.5676 18.8779 38.4323C19.1251 38.297 19.6307 38.1053 20.0015 38.0151C20.3722 37.9249 21.4059 37.7333 22.3047 37.6092C23.2035 37.4739 24.1585 37.3161 24.4394 37.2484C24.7203 37.1808 25.136 37.0342 25.3607 36.9215C25.5966 36.7974 25.8663 36.5945 25.9562 36.4592C26.046 36.3126 26.1247 36.0646 26.1247 35.8954C26.1247 35.715 26.0123 35.4557 25.8775 35.3204C25.7315 35.1738 25.2483 34.9258 23.99 34.5086Z" fill="white"/>
<path d="M21.316 28.499C21.3385 28.4877 21.8103 28.375 22.3609 28.2622C22.9114 28.1382 23.4619 28.0367 23.5743 28.0367C23.7765 28.0254 23.7765 28.2058 23.7091 32.5129C23.6642 34.9709 23.608 37.0117 23.5968 37.0455C23.5743 37.0793 23.1136 37.1695 22.5743 37.2484C22.0238 37.3274 21.5632 37.3837 21.5519 37.3612C21.5407 37.3386 21.4733 35.3542 21.4059 32.9301C21.3385 30.5172 21.3048 28.5215 21.316 28.499Z" fill="white"/>
<path d="M24.2147 21.0011C24.181 20.2908 24.2035 19.9525 24.3158 19.7834C24.4057 19.6594 24.5293 19.5692 24.5967 19.603C24.6641 19.6368 25.1023 19.7721 25.5629 19.9074C26.0236 20.0427 26.7539 20.3359 27.1808 20.5614C27.6527 20.8207 28.147 21.1928 28.4504 21.5423C28.765 21.8918 29.0121 22.3203 29.1133 22.6698C29.2031 22.9855 29.2706 23.4252 29.2706 23.662C29.2706 23.8875 29.2031 24.316 29.1357 24.6091C29.0459 24.9361 28.8099 25.342 28.529 25.6577C28.2819 25.9396 27.7201 26.3455 27.2932 26.5822C26.8662 26.8077 26.237 27.0671 25.9 27.1685C25.5629 27.2587 24.2933 27.5519 23.0912 27.8112C21.889 28.0593 20.6194 28.375 20.2824 28.5103C19.9453 28.6456 19.4959 28.9049 19.2937 29.0853C19.0914 29.277 18.9004 29.5589 18.8667 29.7167C18.833 29.8746 18.8892 30.1903 18.9791 30.427C19.0914 30.6864 19.2937 30.9119 19.5184 31.0359C19.7206 31.1374 20.1475 31.3065 20.4509 31.408C20.9902 31.5884 21.0126 31.6222 21.0913 32.0957C21.125 32.3663 21.1699 32.8624 21.1699 33.1894C21.1812 33.7306 21.1587 33.7757 20.934 33.7757C20.7879 33.7757 20.2711 33.663 19.7768 33.5277C19.2712 33.3811 18.6083 33.0992 18.26 32.8737C17.923 32.6482 17.4511 32.2423 17.2264 31.9604C17.0017 31.6898 16.7095 31.2163 16.5635 30.9006C16.3837 30.4947 16.3163 30.1113 16.3051 29.5476C16.3051 28.8823 16.35 28.6681 16.6309 28.1495C16.8219 27.8225 17.159 27.3715 17.3949 27.1685C17.6196 26.9543 18.0465 26.6612 18.3499 26.5146C18.642 26.368 19.0577 26.1989 19.2712 26.12C19.4847 26.0523 20.8778 25.7479 22.3609 25.4435C23.8889 25.139 25.2596 24.7895 25.5405 24.6542C25.7989 24.5302 26.091 24.3047 26.1809 24.1694C26.2707 24.0228 26.3494 23.7409 26.3494 23.5493C26.3494 23.3237 26.2483 23.0644 26.1022 22.8953C25.9562 22.7374 25.4955 22.4668 24.2709 21.9707L24.2147 21.0011Z" fill="white"/>
<path d="M21.1362 21.1477C21.1025 19.0054 21.0688 16.4798 21.0801 15.5327L21.0913 13.7963L21.5632 13.8753C21.8103 13.9204 22.4508 14.1008 22.9788 14.2812C23.5069 14.4616 23.9788 14.6645 24.0462 14.7322C24.1211 14.8073 24.1098 16.5061 24.0125 19.8285C23.9338 22.5683 23.8552 24.8233 23.8439 24.8346C23.8327 24.8459 23.2709 24.9586 22.5856 25.0939C21.6193 25.2631 21.3385 25.2856 21.2823 25.1729C21.2374 25.1052 21.1699 23.2899 21.1362 21.1477Z" fill="white"/>
<path d="M22.2485 11.5864C23.3496 11.6428 24.0686 11.6315 24.6416 11.53C25.2034 11.4286 25.6753 11.4173 26.1022 11.4849C26.4617 11.5413 27.001 11.7104 27.3044 11.857C27.619 12.0036 28.0909 12.3193 28.3717 12.5561C28.6526 12.8041 29.0571 13.2777 29.6975 14.2248L31.0794 14.3601C31.8434 14.439 32.5288 14.5518 32.585 14.6194C32.6599 14.6946 32.6411 14.7697 32.5288 14.8449C32.4389 14.9013 32.1805 14.9464 31.5738 14.9464L32.2816 15.3974C32.6636 15.6567 32.9782 15.8935 32.9894 15.9386C32.9894 15.9837 32.922 16.0852 32.8434 16.1528C32.731 16.2543 32.3378 16.119 29.6638 14.9689L29.2706 15.1719C29.0571 15.2846 28.6976 15.4087 28.4841 15.4538C28.2706 15.4876 27.7426 15.465 27.3044 15.3974C26.8774 15.3185 25.6303 14.9464 24.5518 14.5518C23.4732 14.1684 22.2598 13.7625 21.8553 13.661C21.4059 13.537 20.8666 13.4806 20.4509 13.5145C20.0801 13.537 19.5745 13.6498 19.3386 13.7738C19.0914 13.8978 18.7431 14.2022 18.5746 14.4503C18.3162 14.7998 18.26 15.014 18.26 15.4876C18.26 15.8371 18.3499 16.2768 18.4847 16.5587C18.6083 16.818 18.8667 17.2239 19.0689 17.4607C19.2712 17.6862 19.7431 18.047 20.7879 18.6221L20.8216 19.8398C20.8441 20.9785 20.8329 21.0462 20.6194 21.0462C20.4958 21.0462 20.0127 20.9109 19.5521 20.7643C19.0914 20.6065 18.4398 20.3133 18.1252 20.0991C17.7994 19.8961 17.2151 19.3888 16.8331 18.9716C16.4062 18.5206 15.9793 17.9117 15.7658 17.4607C15.44 16.7842 15.4063 16.5925 15.395 15.6905C15.395 14.8336 15.44 14.5743 15.6871 14.0557C15.8444 13.7061 16.1927 13.1875 16.4736 12.8831C16.7545 12.5786 17.2601 12.1953 17.6421 12.0036C18.2038 11.733 18.5184 11.6541 19.4959 11.5864C20.1475 11.5413 21.3834 11.5413 22.2485 11.5864Z" fill="white"/>
<path d="M21.2374 6.82835C21.4284 6.7156 21.7766 6.56903 22.0238 6.51265C22.271 6.45628 22.653 6.43373 22.8665 6.46755C23.0799 6.50138 23.4619 6.63668 23.7091 6.7607C23.945 6.896 24.2709 7.17788 24.4169 7.40338C24.5518 7.61761 24.7315 8.00096 24.7877 8.24901C24.8551 8.49706 24.8776 8.86914 24.8326 9.09464C24.7989 9.30886 24.6416 9.70349 24.4843 9.96282C24.327 10.256 24.2147 10.628 24.2147 11.3496H23.6866C23.3833 11.3496 22.653 11.3045 20.9565 11.1805V10.8423C20.9565 10.6506 20.8216 10.3011 20.6531 10.053C20.4284 9.71477 20.3385 9.42162 20.2936 8.92551C20.2599 8.33921 20.2936 8.15881 20.5745 7.64016C20.7542 7.31318 21.0576 6.9411 21.2374 6.82835Z" fill="white"/>
</svg>
